<mxfile host="app.diagrams.net" modified="2024-03-04T15:46:40.990Z" agent="Mozilla/5.0 (Windows NT 10.0; Win64; x64) AppleWebKit/537.36 (KHTML, like Gecko) Chrome/122.0.0.0 Safari/537.36" version="24.0.1" etag="7V1dsMLbn9Q11lUjFq1h" type="github">
  <diagram name="第 1 页" id="x0yTfDtFNDs34jV7gOuZ">
    <mxGraphModel>
      <root>
        <mxCell id="0" />
        <mxCell id="1" parent="0" />
      </root>
    </mxGraphModel>
  </diagram>
</mxfile>
